<?xml version="1.0" encoding="utf-8"?>
<svg viewBox="0 0 500 500" xmlns="http://www.w3.org/2000/svg">
  <path d="M 396.411 250 C 396.411 287.634 382.212 321.951 358.88 347.887 C 367.451 358.608 376.307 369.906 385.372 381.641 L 452.2 397.051 C 411.592 452.792 348.496 491.1 276.25 498.638 L 296.303 433.106 C 290.815 418.832 285.822 405.496 281.302 393.057 C 271.217 395.254 260.743 396.411 250 396.411 C 185.789 396.411 131.233 355.077 111.488 297.565 C 97.681 299.203 83.213 300.519 68.271 301.457 L 21.517 351.62 C 7.687 320.571 0 286.183 0 250 C 0 213.817 7.687 179.429 21.517 148.38 L 68.271 198.543 C 83.755 199.827 98.11 201.231 111.384 202.74 C 131.041 145.069 185.676 103.589 250 103.589 C 260.343 103.589 270.435 104.661 280.172 106.701 C 285.019 94.327 290.392 81.065 296.303 66.894 L 276.25 1.362 C 348.496 8.9 411.592 47.208 452.2 102.949 L 385.372 118.359 C 375.846 130.071 366.743 141.039 358.081 151.232 C 381.888 177.27 396.411 211.939 396.411 250 Z M 250 174 C 208.026 174 174 208.026 174 250 C 174 291.974 208.026 326 250 326 C 291.974 326 326 291.974 326 250 C 326 208.026 291.974 174 250 174 Z" style="fill: rgb(255, 255, 255);"/>
</svg>