<?xml version="1.0" encoding="utf-8"?>
<svg viewBox="0 0 500 500" xmlns="http://www.w3.org/2000/svg">
  <path d="M 250 21.006 C 307.33 21.006 401.051 82.169 407.957 100.307 C 414.864 118.442 417.726 134.59 416.541 148.75 C 417.726 173.49 414.864 201.702 407.957 233.388 C 401.051 265.076 390.099 300.237 375.1 338.87 C 333.4 446.29 259.095 500 250 500 C 240.905 500 166.6 446.29 124.9 338.87 C 109.902 300.237 98.949 265.076 92.042 233.388 C 85.136 201.702 82.274 173.49 83.459 148.75 C 82.274 134.59 85.136 118.442 92.042 100.307 C 98.949 82.169 192.67 21.006 250 21.006 Z" style="fill: rgb(255, 255, 255);"/>
</svg>