<?xml version="1.0" encoding="utf-8"?>
<svg viewBox="0 0 500 500" xmlns="http://www.w3.org/2000/svg">
  <path d="M 249.996 25.587 C 275.832 25.631 285.379 66.426 290.796 91.812 C 312.477 193.421 249.996 400.863 249.996 400.863 C 249.996 400.863 187.076 193.409 208.884 91.812 C 214.342 66.379 224.103 25.542 249.996 25.587 Z" style="fill: rgb(255, 255, 255);"/>
  <g>
    <path d="M 404.187 87.502 C 429.132 94.485 428.18 136.454 427.082 162.43 C 422.685 266.402 310.602 449.991 310.602 449.991 C 310.602 449.991 301.56 232.704 347.961 140.427 C 359.575 117.327 379.188 80.504 404.187 87.502 Z" style="fill: rgb(255, 255, 255); transform-origin: 370.703125px 271.609375px;" transform="matrix(1, 0, 0, 1, 0, 31.810767983028327)"/>
    <path d="M 96.136 87.405 C 121.103 80.508 140.497 117.348 152.061 140.414 C 198.342 232.738 189.721 449.894 189.721 449.894 C 189.721 449.894 77.21 266.41 72.939 162.417 C 71.869 136.385 71.114 94.318 96.136 87.405 Z" style="fill: rgb(255, 255, 255); transform-origin: 129.21875px 271.546875px;" transform="matrix(1, 0, 0, 1, 0, 31.810767983028327)"/>
  </g>
</svg>